<svg width="48" height="10" viewBox="0 0 48 10" fill="none" xmlns="http://www.w3.org/2000/svg">
<path d="M0.0280244 8.134L0.910024 7.896V2.534C0.910024 2.29134 0.891358 2.13267 0.854024 2.058C0.826024 1.974 0.737358 1.89934 0.588024 1.834L2.44193e-05 1.498L0.0420244 0.168004H4.41002L4.48002 1.596L3.44402 1.876V4.508L5.89402 1.862C5.93136 1.82467 5.95002 1.77334 5.95002 1.708C5.95002 1.66134 5.93602 1.61934 5.90802 1.582L5.50202 1.092L5.65602 0.168004H8.90402L9.07202 1.12L5.86602 4.55L9.29602 8.974V9.604H6.62202L3.44402 5.39V7.336C3.44402 7.54134 3.45802 7.68134 3.48602 7.756C3.52336 7.83067 3.61202 7.90534 3.75202 7.98L4.49402 8.4L4.43802 9.604H0.0980244L0.0280244 8.134ZM10.1831 1.806L9.70706 1.148L9.76306 0.168004H13.7811L13.8651 1.498L12.8571 1.764L14.5931 7.182L15.9791 2.87L15.3631 1.064L15.4191 0.168004H19.1431L19.2271 1.498L18.3031 1.764L20.0251 7.182L21.6351 2.226C21.6631 2.15134 21.6771 2.086 21.6771 2.03C21.6771 1.90867 21.6164 1.82934 21.4951 1.792L20.5431 1.4L20.6271 0.168004H24.2951L24.3651 1.358L23.7911 2.142L20.8511 9.66L18.4011 9.898L16.9311 5.614L15.4191 9.66L12.8291 9.898L10.1831 1.806ZM25.0202 8.176L26.0422 7.896V2.534C26.0422 2.29134 26.0235 2.13267 25.9862 2.058C25.9489 1.974 25.8509 1.89934 25.6922 1.834L24.9922 1.428L25.0342 0.168004H32.6362C32.7015 1.148 32.7342 2.10467 32.7342 3.038L31.6982 3.108L30.7042 1.876L28.5902 1.82V4.102L31.5722 3.85V6.006L28.5902 5.684V7.938L30.9142 7.896L31.9922 6.664L33.0282 6.734C32.9909 7.714 32.9209 8.67067 32.8182 9.604H25.0902L25.0202 8.176ZM33.8829 8.176L34.9049 7.896V2.562C34.9049 2.31934 34.8862 2.16067 34.8489 2.086C34.8115 2.002 34.7135 1.92734 34.5549 1.862L33.8269 1.456L33.9109 0.308003C35.3109 0.10267 36.6595 3.21865e-06 37.9569 3.21865e-06C38.9649 3.21865e-06 39.7769 0.10267 40.3929 0.308003C41.0089 0.504004 41.4569 0.81667 41.7369 1.246C42.0262 1.666 42.1709 2.226 42.1709 2.926C42.1709 3.50467 42.0215 4.01334 41.7229 4.452C41.4242 4.88134 40.9995 5.21267 40.4489 5.446L42.6889 9.058L42.6749 9.604H40.1269L38.0549 5.866L37.4389 5.852V7.42C37.4389 7.644 37.4529 7.78867 37.4809 7.854C37.5182 7.91 37.6022 7.97534 37.7329 8.05L38.3349 8.4L38.2789 9.604H33.9529L33.8829 8.176ZM38.3349 4.284C38.8295 4.284 39.1935 4.23734 39.4269 4.144C39.5202 3.808 39.5669 3.40667 39.5669 2.94C39.5669 2.47334 39.4642 2.142 39.2589 1.946C39.0629 1.75 38.7315 1.652 38.2649 1.652C38.0035 1.652 37.7375 1.666 37.4669 1.694V4.2C37.7095 4.256 37.9989 4.284 38.3349 4.284ZM43.2465 8.176L44.2685 7.896V2.534C44.2685 2.29134 44.2498 2.13267 44.2125 2.058C44.1751 1.974 44.0771 1.89934 43.9185 1.834L43.1905 1.414L43.2605 0.168004H47.7545L47.8105 1.596L46.8025 1.876V7.336C46.8025 7.56 46.8165 7.70467 46.8445 7.77C46.8818 7.83534 46.9705 7.90067 47.1105 7.966L47.8245 8.4L47.7825 9.604H43.3165L43.2465 8.176Z" fill="white"/>
</svg>
